<mxfile host="app.diagrams.net" modified="2023-05-02T10:36:35.430Z" agent="Mozilla/5.0 (Windows NT 10.0; Win64; x64) AppleWebKit/537.36 (KHTML, like Gecko) Chrome/112.0.0.0 Safari/537.36" etag="udYDnEZUFALnb1Tcr1wC" version="21.2.4" type="github">
  <diagram name="Trang-1" id="JG_MUGtklYGGG61Zg5_y">
    <mxGraphModel dx="1050" dy="541" grid="1" gridSize="10" guides="1" tooltips="1" connect="1" arrows="1" fold="1" page="1" pageScale="1" pageWidth="827" pageHeight="1169" math="0" shadow="0">
      <root>
        <mxCell id="0" />
        <mxCell id="1" parent="0" />
        <mxCell id="aopMbLr213rJRts3hhld-1" value="Quản trị viên" style="shape=umlActor;verticalLabelPosition=bottom;verticalAlign=top;outlineConnect=0;html=1;" vertex="1" parent="1">
          <mxGeometry x="70" y="290" width="30" height="60" as="geometry" />
        </mxCell>
        <mxCell id="aopMbLr213rJRts3hhld-4" value="Khách" style="shape=umlActor;verticalLabelPosition=bottom;verticalAlign=top;outlineConnect=0;html=1;" vertex="1" parent="1">
          <mxGeometry x="788" y="290" width="30" height="60" as="geometry" />
        </mxCell>
        <mxCell id="aopMbLr213rJRts3hhld-5" value="Quản lý dự án" style="ellipse;whiteSpace=wrap;html=1;" vertex="1" parent="1">
          <mxGeometry x="190" y="210" width="120" height="50" as="geometry" />
        </mxCell>
        <mxCell id="aopMbLr213rJRts3hhld-6" value="Quản lý sản phẩm" style="ellipse;whiteSpace=wrap;html=1;" vertex="1" parent="1">
          <mxGeometry x="180" y="310" width="120" height="50" as="geometry" />
        </mxCell>
        <mxCell id="aopMbLr213rJRts3hhld-7" value="Quản lý người dùng" style="ellipse;whiteSpace=wrap;html=1;" vertex="1" parent="1">
          <mxGeometry x="180" y="400" width="120" height="50" as="geometry" />
        </mxCell>
        <mxCell id="aopMbLr213rJRts3hhld-8" value="Quản lý bài viết" style="ellipse;whiteSpace=wrap;html=1;" vertex="1" parent="1">
          <mxGeometry x="200" y="470" width="120" height="50" as="geometry" />
        </mxCell>
        <mxCell id="aopMbLr213rJRts3hhld-10" value="Xem dự án" style="ellipse;whiteSpace=wrap;html=1;" vertex="1" parent="1">
          <mxGeometry x="598" y="240" width="120" height="50" as="geometry" />
        </mxCell>
        <mxCell id="aopMbLr213rJRts3hhld-12" value="Xem bài viết" style="ellipse;whiteSpace=wrap;html=1;" vertex="1" parent="1">
          <mxGeometry x="588" y="420" width="120" height="50" as="geometry" />
        </mxCell>
        <mxCell id="aopMbLr213rJRts3hhld-13" value="Xem sản phẩm" style="ellipse;whiteSpace=wrap;html=1;" vertex="1" parent="1">
          <mxGeometry x="558" y="330" width="120" height="50" as="geometry" />
        </mxCell>
        <mxCell id="aopMbLr213rJRts3hhld-14" value="" style="endArrow=none;html=1;rounded=0;entryX=0;entryY=0.5;entryDx=0;entryDy=0;exitX=1;exitY=0.3333333333333333;exitDx=0;exitDy=0;exitPerimeter=0;" edge="1" parent="1" source="aopMbLr213rJRts3hhld-1" target="aopMbLr213rJRts3hhld-5">
          <mxGeometry width="50" height="50" relative="1" as="geometry">
            <mxPoint x="100" y="300" as="sourcePoint" />
            <mxPoint x="150" y="250" as="targetPoint" />
          </mxGeometry>
        </mxCell>
        <mxCell id="aopMbLr213rJRts3hhld-15" value="" style="endArrow=none;html=1;rounded=0;exitX=1;exitY=0.3333333333333333;exitDx=0;exitDy=0;exitPerimeter=0;" edge="1" parent="1" source="aopMbLr213rJRts3hhld-1" target="aopMbLr213rJRts3hhld-6">
          <mxGeometry width="50" height="50" relative="1" as="geometry">
            <mxPoint x="390" y="380" as="sourcePoint" />
            <mxPoint x="440" y="330" as="targetPoint" />
          </mxGeometry>
        </mxCell>
        <mxCell id="aopMbLr213rJRts3hhld-16" value="" style="endArrow=none;html=1;rounded=0;" edge="1" parent="1" target="aopMbLr213rJRts3hhld-7">
          <mxGeometry width="50" height="50" relative="1" as="geometry">
            <mxPoint x="100" y="310" as="sourcePoint" />
            <mxPoint x="440" y="330" as="targetPoint" />
          </mxGeometry>
        </mxCell>
        <mxCell id="aopMbLr213rJRts3hhld-17" value="" style="endArrow=none;html=1;rounded=0;entryX=0;entryY=0.5;entryDx=0;entryDy=0;" edge="1" parent="1" target="aopMbLr213rJRts3hhld-8">
          <mxGeometry width="50" height="50" relative="1" as="geometry">
            <mxPoint x="100" y="310" as="sourcePoint" />
            <mxPoint x="440" y="330" as="targetPoint" />
          </mxGeometry>
        </mxCell>
        <mxCell id="aopMbLr213rJRts3hhld-19" value="" style="endArrow=none;html=1;rounded=0;entryX=1;entryY=1;entryDx=0;entryDy=0;exitX=0;exitY=0.3333333333333333;exitDx=0;exitDy=0;exitPerimeter=0;" edge="1" parent="1" source="aopMbLr213rJRts3hhld-4" target="aopMbLr213rJRts3hhld-10">
          <mxGeometry width="50" height="50" relative="1" as="geometry">
            <mxPoint x="558" y="340" as="sourcePoint" />
            <mxPoint x="648" y="265" as="targetPoint" />
          </mxGeometry>
        </mxCell>
        <mxCell id="aopMbLr213rJRts3hhld-20" value="" style="endArrow=none;html=1;rounded=0;entryX=0;entryY=0.3333333333333333;entryDx=0;entryDy=0;entryPerimeter=0;exitX=1;exitY=0.5;exitDx=0;exitDy=0;" edge="1" parent="1" source="aopMbLr213rJRts3hhld-13" target="aopMbLr213rJRts3hhld-4">
          <mxGeometry width="50" height="50" relative="1" as="geometry">
            <mxPoint x="458" y="380" as="sourcePoint" />
            <mxPoint x="508" y="330" as="targetPoint" />
          </mxGeometry>
        </mxCell>
        <mxCell id="aopMbLr213rJRts3hhld-21" value="" style="endArrow=none;html=1;rounded=0;entryX=0;entryY=0.3333333333333333;entryDx=0;entryDy=0;entryPerimeter=0;exitX=1;exitY=0;exitDx=0;exitDy=0;" edge="1" parent="1" source="aopMbLr213rJRts3hhld-12" target="aopMbLr213rJRts3hhld-4">
          <mxGeometry width="50" height="50" relative="1" as="geometry">
            <mxPoint x="518" y="520" as="sourcePoint" />
            <mxPoint x="568" y="470" as="targetPoint" />
          </mxGeometry>
        </mxCell>
        <mxCell id="aopMbLr213rJRts3hhld-22" value="Đăng nhập" style="ellipse;whiteSpace=wrap;html=1;" vertex="1" parent="1">
          <mxGeometry x="400" y="330" width="120" height="50" as="geometry" />
        </mxCell>
        <mxCell id="aopMbLr213rJRts3hhld-23" value="" style="endArrow=block;dashed=1;endFill=0;endSize=12;html=1;rounded=0;exitX=1;exitY=0.5;exitDx=0;exitDy=0;" edge="1" parent="1" source="aopMbLr213rJRts3hhld-5">
          <mxGeometry width="160" relative="1" as="geometry">
            <mxPoint x="330" y="360" as="sourcePoint" />
            <mxPoint x="450" y="330" as="targetPoint" />
          </mxGeometry>
        </mxCell>
        <mxCell id="aopMbLr213rJRts3hhld-24" value="&amp;lt;&amp;lt; Include &amp;gt;&amp;gt;" style="edgeLabel;html=1;align=center;verticalAlign=middle;resizable=0;points=[];" vertex="1" connectable="0" parent="aopMbLr213rJRts3hhld-23">
          <mxGeometry x="-0.1932" y="-3" relative="1" as="geometry">
            <mxPoint as="offset" />
          </mxGeometry>
        </mxCell>
        <mxCell id="aopMbLr213rJRts3hhld-25" value="" style="endArrow=block;dashed=1;endFill=0;endSize=12;html=1;rounded=0;exitX=1;exitY=0.5;exitDx=0;exitDy=0;" edge="1" parent="1" source="aopMbLr213rJRts3hhld-6" target="aopMbLr213rJRts3hhld-22">
          <mxGeometry width="160" relative="1" as="geometry">
            <mxPoint x="320" y="245" as="sourcePoint" />
            <mxPoint x="460" y="340" as="targetPoint" />
          </mxGeometry>
        </mxCell>
        <mxCell id="aopMbLr213rJRts3hhld-26" value="&amp;lt;&amp;lt; Include &amp;gt;&amp;gt;" style="edgeLabel;html=1;align=center;verticalAlign=middle;resizable=0;points=[];" vertex="1" connectable="0" parent="aopMbLr213rJRts3hhld-25">
          <mxGeometry x="-0.1932" y="-3" relative="1" as="geometry">
            <mxPoint as="offset" />
          </mxGeometry>
        </mxCell>
        <mxCell id="aopMbLr213rJRts3hhld-27" value="" style="endArrow=block;dashed=1;endFill=0;endSize=12;html=1;rounded=0;exitX=1;exitY=0;exitDx=0;exitDy=0;" edge="1" parent="1" source="aopMbLr213rJRts3hhld-7">
          <mxGeometry width="160" relative="1" as="geometry">
            <mxPoint x="330" y="255" as="sourcePoint" />
            <mxPoint x="410" y="370" as="targetPoint" />
          </mxGeometry>
        </mxCell>
        <mxCell id="aopMbLr213rJRts3hhld-28" value="&amp;lt;&amp;lt; Include &amp;gt;&amp;gt;" style="edgeLabel;html=1;align=center;verticalAlign=middle;resizable=0;points=[];" vertex="1" connectable="0" parent="aopMbLr213rJRts3hhld-27">
          <mxGeometry x="-0.1932" y="-3" relative="1" as="geometry">
            <mxPoint as="offset" />
          </mxGeometry>
        </mxCell>
        <mxCell id="aopMbLr213rJRts3hhld-29" value="" style="endArrow=block;dashed=1;endFill=0;endSize=12;html=1;rounded=0;exitX=1;exitY=0;exitDx=0;exitDy=0;" edge="1" parent="1" source="aopMbLr213rJRts3hhld-8">
          <mxGeometry width="160" relative="1" as="geometry">
            <mxPoint x="292" y="417" as="sourcePoint" />
            <mxPoint x="420" y="380" as="targetPoint" />
          </mxGeometry>
        </mxCell>
        <mxCell id="aopMbLr213rJRts3hhld-30" value="&amp;lt;&amp;lt; Include &amp;gt;&amp;gt;" style="edgeLabel;html=1;align=center;verticalAlign=middle;resizable=0;points=[];" vertex="1" connectable="0" parent="aopMbLr213rJRts3hhld-29">
          <mxGeometry x="-0.1932" y="-3" relative="1" as="geometry">
            <mxPoint as="offset" />
          </mxGeometry>
        </mxCell>
      </root>
    </mxGraphModel>
  </diagram>
</mxfile>
